# Blender v2.79 (sub 0) OBJ File: ''
# www.blender.org
mtllib frasierneck.mtl
o t_phoenix_reference.001_t_phoenix_reference.003
v 0.000000 67.202698 -4.385806
v 1.505077 65.419647 -4.127094
v 0.007775 65.754944 -4.409365
v 0.000000 67.202698 -4.385806
v 1.266715 67.084534 -4.147193
v 1.505077 65.419647 -4.127094
v 1.266715 67.084534 -4.147193
v 2.582629 65.213943 -3.291110
v 1.505077 65.419647 -4.127094
v 1.266715 67.084534 -4.147193
v 2.364570 66.837250 -3.081873
v 2.582629 65.213943 -3.291110
v 2.364570 66.837250 -3.081873
v 3.072298 64.713333 -1.826706
v 2.582629 65.213943 -3.291110
v 0.011738 68.558182 -3.709623
v 1.266715 67.084534 -4.147193
v 0.000000 67.202698 -4.385806
v 2.527116 68.401947 -2.554500
v 1.266715 67.084534 -4.147193
v 1.194323 68.505585 -3.494952
v 2.527116 68.401947 -2.554500
v 2.364570 66.837250 -3.081873
v 1.266715 67.084534 -4.147193
v 2.527116 68.401947 -2.554500
v 3.134042 66.309738 -1.783201
v 2.364570 66.837250 -3.081873
v 2.364570 66.837250 -3.081873
v 3.134042 66.309738 -1.783201
v 3.072298 64.713333 -1.826706
v 3.134042 66.309738 -1.783201
v 3.324066 64.066040 -0.203549
v 3.072298 64.713333 -1.826706
v 3.134042 66.309738 -1.783201
v 3.228768 65.740646 0.281888
v 3.324066 64.066040 -0.203549
v 3.228768 65.740646 0.281888
v 2.609372 63.510868 1.312950
v 3.324066 64.066040 -0.203549
v 3.228768 65.740646 0.281888
v 2.478970 65.266983 1.711349
v 2.609372 63.510868 1.312950
v 2.478970 65.266983 1.711349
v 1.519814 62.595203 3.088905
v 2.609372 63.510868 1.312950
v 2.478970 65.266983 1.711349
v 1.203654 64.572922 3.172995
v 1.519814 62.595203 3.088905
v 1.203654 64.572922 3.172995
v 0.007775 62.236340 2.951918
v 1.519814 62.595203 3.088905
v 1.203654 64.572922 3.172995
v 0.000000 64.269012 3.192268
v 0.007775 62.236340 2.951918
v 0.000000 64.269012 3.192268
v -1.507339 62.187927 2.860349
v 0.007775 62.236340 2.951918
v 0.000000 64.269012 3.192268
v -1.376168 64.401764 3.033515
v -1.507339 62.187927 2.860349
v -1.376168 64.401764 3.033515
v -3.246374 63.907192 1.349513
v -1.507339 62.187927 2.860349
v -1.376168 64.401764 3.033515
v -2.716604 65.369446 1.861803
v -3.246374 63.907192 1.349513
v -2.716604 65.369446 1.861803
v -3.492009 64.799744 -0.191556
v -3.246374 63.907192 1.349513
v -2.716604 65.369446 1.861803
v -3.186982 66.437454 0.281887
v -3.492009 64.799744 -0.191556
v 2.527116 68.401947 -2.554500
v 2.527116 68.401947 -2.554500
v 1.194323 68.505585 -3.494952
v 2.527116 68.401947 -2.554500
v 2.527116 68.401947 -2.554500
v 3.023479 67.656570 -0.897996
v 2.527116 68.401947 -2.554500
v 3.023479 67.656570 -0.897996
v 3.134042 66.309738 -1.783201
v 3.023479 67.656570 -0.897996
v 3.228768 65.740646 0.281888
v 3.134042 66.309738 -1.783201
v 0.003960 65.872101 3.467989
v 0.000000 64.269012 3.192268
v 1.203654 64.572922 3.172995
v 0.003960 65.872101 3.467989
v 1.203654 64.572922 3.172995
v 0.910501 66.001488 3.330001
v 0.910501 66.001488 3.330001
v 1.203654 64.572922 3.172995
v 2.478970 65.266983 1.711349
v 0.910501 66.001488 3.330001
v 2.478970 65.266983 1.711349
v 2.143116 66.478531 2.422173
v 2.143116 66.478531 2.422173
v 2.478970 65.266983 1.711349
v 3.228768 65.740646 0.281888
v 2.143116 66.478531 2.422173
v 3.228768 65.740646 0.281888
v 2.929024 67.292984 0.985627
v 3.023479 67.656570 -0.897996
v 2.929024 67.292984 0.985627
v 3.228768 65.740646 0.281888
v 3.023479 67.656570 -0.897996
v 2.929024 67.292984 0.985627
v 3.023479 67.656570 -0.897996
v 2.143116 66.478531 2.422173
v 2.143116 66.478531 2.422173
v 2.929024 67.292984 0.985627
v -3.048787 67.311417 0.836823
v -3.048787 67.311417 0.836823
v -3.048787 67.311417 0.836823
v -2.265036 66.510544 2.422173
v -2.265036 66.510544 2.422173
v -2.265036 66.510544 2.422173
v -0.902579 66.001488 3.330000
v -0.902579 66.001488 3.330000
v -0.902579 66.001488 3.330000
v 0.003960 65.872101 3.467989
v 0.003960 65.872101 3.467989
v 0.003960 65.872101 3.467989
v 0.910501 66.001488 3.330001
v 0.910501 66.001488 3.330001
v 2.143116 66.478531 2.422173
v 2.143116 66.478531 2.422173
v -1.170846 68.505585 -3.494952
v -1.266715 67.084534 -3.944378
v -2.582779 66.835602 -3.074491
v -3.186982 66.437454 0.281887
v -3.048278 65.073853 -1.829819
v -3.492009 64.799744 -0.191556
v -3.186982 66.437454 0.281887
v -3.158560 66.309738 -1.847961
v -3.048278 65.073853 -1.829819
v -3.158560 66.309738 -1.847961
v -2.494409 65.126907 -3.301103
v -3.048278 65.073853 -1.829819
v -3.158560 66.309738 -1.847961
v -2.582779 66.835602 -3.074491
v -2.494409 65.126907 -3.301103
v -2.582779 66.835602 -3.074491
v -1.489731 65.415756 -4.125291
v -2.494409 65.126907 -3.301103
v -2.582779 66.835602 -3.074491
v -1.266715 67.084534 -3.944378
v -1.489731 65.415756 -4.125291
v -1.266715 67.084534 -3.944378
v 0.007775 65.754944 -4.409365
v -1.489731 65.415756 -4.125291
v -1.266715 67.084534 -3.944378
v 0.000000 67.202698 -4.385806
v 0.007775 65.754944 -4.409365
v 0.000000 67.202698 -4.385806
v -1.266715 67.084534 -3.944378
v -1.170846 68.505585 -3.494952
v 0.000000 67.202698 -4.385806
v -1.170846 68.505585 -3.494952
v 0.011738 68.558182 -3.709623
v 0.011738 68.558182 -3.709623
v -1.170846 68.505585 -3.494952
v -1.170846 68.505585 -3.494952
v -1.170846 68.505585 -3.494952
v -1.170846 68.505585 -3.494952
v -2.516390 68.401947 -2.533477
v -1.170846 68.505585 -3.494952
v -2.582779 66.835602 -3.074491
v -2.516390 68.401947 -2.533477
v -2.582779 66.835602 -3.074491
v -2.993237 67.675003 -0.977391
v -2.516390 68.401947 -2.533477
v -2.582779 66.835602 -3.074491
v -3.158560 66.309738 -1.847961
v -2.993237 67.675003 -0.977391
v -2.516390 68.401947 -2.533477
v -2.516390 68.401947 -2.533477
v -2.993237 67.675003 -0.977391
v -2.516390 68.401947 -2.533477
v -3.048787 67.311417 0.836823
v -2.993237 67.675003 -0.977391
v -3.158560 66.309738 -1.847961
v -3.048787 67.311417 0.836823
v -2.993237 67.675003 -0.977391
v -3.158560 66.309738 -1.847961
v -3.186982 66.437454 0.281887
v -3.048787 67.311417 0.836823
v -3.048787 67.311417 0.836823
v -3.186982 66.437454 0.281887
v -2.716604 65.369446 1.861803
v -3.048787 67.311417 0.836823
v -2.716604 65.369446 1.861803
v -2.265036 66.510544 2.422173
v -2.265036 66.510544 2.422173
v -2.716604 65.369446 1.861803
v -1.376168 64.401764 3.033515
v -2.265036 66.510544 2.422173
v -1.376168 64.401764 3.033515
v -0.902579 66.001488 3.330000
v -0.902579 66.001488 3.330000
v -1.376168 64.401764 3.033515
v 0.000000 64.269012 3.192268
v -0.902579 66.001488 3.330000
v 0.000000 64.269012 3.192268
v 0.003960 65.872101 3.467989
v 0.011738 68.558182 -3.709623
v 1.194323 68.505585 -3.494952
v 0.011738 68.558182 -3.709623
v 0.011738 68.558182 -3.709623
v 1.194323 68.505585 -3.494952
v 1.266715 67.084534 -4.147193
vt 0.985041 0.500871
vt 0.963207 0.548100
vt 0.977690 0.552139
vt 0.985041 0.500871
vt 0.969904 0.498329
vt 0.963207 0.548100
vt 0.969904 0.498329
vt 0.950354 0.545961
vt 0.963207 0.548100
vt 0.969904 0.498329
vt 0.956532 0.496327
vt 0.950354 0.545961
vt 0.956532 0.496327
vt 0.927047 0.544154
vt 0.950354 0.545961
vt 0.983544 0.534346
vt 0.969904 0.498329
vt 0.985041 0.500871
vt 0.950858 0.529739
vt 0.969904 0.498329
vt 0.969555 0.532570
vt 0.950858 0.529739
vt 0.956532 0.496327
vt 0.969904 0.498329
vt 0.950858 0.529739
vt 0.938665 0.492227
vt 0.956532 0.496327
vt 0.956532 0.496327
vt 0.938665 0.492227
vt 0.927047 0.544154
vt 0.938665 0.492227
vt 0.890167 0.527542
vt 0.927047 0.544154
vt 0.938665 0.492227
vt 0.897904 0.489823
vt 0.890167 0.527542
vt 0.897904 0.489823
vt 0.859961 0.518898
vt 0.890167 0.527542
vt 0.897904 0.489823
vt 0.862107 0.481865
vt 0.859961 0.518898
vt 0.862107 0.481865
vt 0.836410 0.510793
vt 0.859961 0.518898
vt 0.862107 0.481865
vt 0.832720 0.479636
vt 0.836410 0.510793
vt 0.832720 0.479636
vt 0.818525 0.506890
vt 0.836410 0.510793
vt 0.832720 0.479636
vt 0.818694 0.475969
vt 0.818525 0.506890
vt 0.818694 0.475969
vt 0.800018 0.507161
vt 0.818525 0.506890
vt 0.818694 0.475969
vt 0.802168 0.477445
vt 0.800018 0.507161
vt 0.802168 0.477445
vt 0.774915 0.512963
vt 0.800018 0.507161
vt 0.802168 0.477445
vt 0.773670 0.480453
vt 0.774915 0.512963
vt 0.773670 0.480453
vt 0.746119 0.526675
vt 0.774915 0.512963
vt 0.773670 0.480453
vt 0.741906 0.489978
vt 0.746119 0.526675
vt 0.950858 0.529739
vt 0.934009 0.521021
vt 0.938665 0.492227
vt 0.934009 0.521021
vt 0.897904 0.489823
vt 0.938665 0.492227
vt 0.817545 0.497614
vt 0.818694 0.475969
vt 0.832720 0.479636
vt 0.817545 0.497614
vt 0.832720 0.479636
vt 0.832008 0.499676
vt 0.832008 0.499676
vt 0.832720 0.479636
vt 0.862107 0.481865
vt 0.832008 0.499676
vt 0.862107 0.481865
vt 0.858836 0.509827
vt 0.858836 0.509827
vt 0.862107 0.481865
vt 0.897904 0.489823
vt 0.858836 0.509827
vt 0.897904 0.489823
vt 0.891107 0.515929
vt 0.934009 0.521021
vt 0.891107 0.515929
vt 0.897904 0.489823
vt 0.666721 0.535968
vt 0.663323 0.503123
vt 0.676696 0.501121
vt 0.741906 0.489978
vt 0.713047 0.532908
vt 0.746119 0.526675
vt 0.741906 0.489978
vt 0.695663 0.497021
vt 0.713047 0.532908
vt 0.695663 0.497021
vt 0.686150 0.537516
vt 0.713047 0.532908
vt 0.695663 0.497021
vt 0.676696 0.501121
vt 0.686150 0.537516
vt 0.676696 0.501121
vt 0.673521 0.541873
vt 0.686150 0.537516
vt 0.676696 0.501121
vt 0.663323 0.503123
vt 0.673521 0.541873
vt 0.663323 0.503123
vt 0.650151 0.548030
vt 0.673521 0.541873
vt 0.663323 0.503123
vt 0.648848 0.505665
vt 0.650151 0.548030
vt 0.648848 0.505665
vt 0.663323 0.503123
vt 0.666721 0.535968
vt 0.648848 0.505665
vt 0.666721 0.535968
vt 0.651545 0.536887
vt 0.666721 0.535968
vt 0.676696 0.501121
vt 0.684231 0.534468
vt 0.676696 0.501121
vt 0.701080 0.525890
vt 0.684231 0.534468
vt 0.676696 0.501121
vt 0.695663 0.497021
vt 0.701080 0.525890
vt 0.695663 0.497021
vt 0.743983 0.523581
vt 0.701080 0.525890
vt 0.695663 0.497021
vt 0.741906 0.489978
vt 0.743983 0.523581
vt 0.743983 0.523581
vt 0.741906 0.489978
vt 0.773670 0.480453
vt 0.743983 0.523581
vt 0.773670 0.480453
vt 0.780904 0.504613
vt 0.780904 0.504613
vt 0.773670 0.480453
vt 0.802168 0.477445
vt 0.780904 0.504613
vt 0.802168 0.477445
vt 0.803068 0.499676
vt 0.803068 0.499676
vt 0.802168 0.477445
vt 0.818694 0.475969
vt 0.803068 0.499676
vt 0.818694 0.475969
vt 0.817545 0.497614
vt 0.983544 0.534346
vt 0.969555 0.532570
vt 0.969904 0.498329
vn -0.0389 0.2340 -0.9715
vn 0.4452 0.0784 -0.8920
vn -0.0400 0.0500 -0.9979
vn -0.0390 0.2340 -0.9714
vn 0.4412 0.2211 -0.8697
vn 0.4412 0.2211 -0.8698
vn 0.8115 0.1075 -0.5744
vn 0.8116 0.1604 -0.5618
vn 0.9692 0.0502 -0.2410
vn -0.0186 0.1809 -0.9833
vn 0.8641 0.0883 -0.4954
vn 0.4187 0.1542 -0.8949
vn 0.4411 0.2211 -0.8698
vn 0.9755 0.0940 -0.1989
vn 0.9692 0.0503 -0.2410
vn 0.9838 -0.0142 0.1786
vn 0.9763 0.0168 0.2158
vn 0.8566 -0.0163 0.5157
vn 0.8314 -0.0330 0.5547
vn 0.4396 -0.0358 0.8975
vn 0.4324 -0.0713 0.8989
vn -0.0559 -0.0883 0.9945
vn -0.0392 -0.1157 0.9925
vn -0.3978 -0.0596 0.9155
vn -0.0563 -0.0883 0.9945
vn -0.3975 -0.0787 0.9142
vn -0.3978 -0.0597 0.9155
vn -0.3975 -0.0788 0.9142
vn -0.8330 0.0697 0.5489
vn -0.8145 0.0389 0.5788
vn -0.8329 0.0697 0.5489
vn -0.9876 0.1228 0.0979
vn -0.8329 0.0697 0.5490
vn -0.8146 0.0389 0.5788
vn -0.9830 0.1109 0.1466
vn 0.8641 0.0883 -0.4955
vn 0.9853 0.1262 -0.1154
vn 0.9755 0.0941 -0.1989
vn 0.9853 0.1261 -0.1154
vn -0.0112 -0.2496 0.9683
vn 0.4334 -0.2045 0.8777
vn 0.7714 -0.1068 0.6273
vn 0.8314 -0.0330 0.5546
vn 0.9658 0.0375 0.2565
vn 0.9658 0.0376 0.2564
vn -0.4154 0.1442 -0.8981
vn -0.4356 0.2197 -0.8729
vn -0.7981 0.1510 -0.5833
vn -0.9654 0.0263 -0.2595
vn -0.9745 0.1006 -0.2007
vn -0.9654 0.0262 -0.2595
vn -0.7894 0.0440 -0.6123
vn -0.9654 0.0263 -0.2594
vn -0.7894 0.0441 -0.6123
vn -0.7981 0.1509 -0.5833
vn -0.4426 0.1022 -0.8909
vn -0.4425 0.1022 -0.8909
vn -0.4154 0.1443 -0.8981
vn -0.0389 0.2340 -0.9714
vn -0.7981 0.1510 -0.5834
vn -0.8588 0.1000 -0.5025
vn -0.9812 0.1493 -0.1227
vn -0.9721 0.0798 0.2204
vn -0.9830 0.1109 0.1467
vn -0.9721 0.0799 0.2204
vn -0.7551 -0.0629 0.6525
vn -0.7551 -0.0629 0.6526
vn -0.4090 -0.1971 0.8910
vn -0.4089 -0.1971 0.8910
vn -0.0391 -0.1157 0.9925
usemtl t_phoenix
s 1
f 1/1/1 2/2/2 3/3/3
f 4/4/4 5/5/5 6/6/2
f 7/7/6 8/8/7 9/9/2
f 10/10/6 11/11/8 12/12/7
f 13/13/8 14/14/9 15/15/7
f 16/16/10 17/17/6 18/18/4
f 19/19/11 20/20/6 21/21/12
f 22/22/11 23/23/8 24/24/13
f 25/25/11 26/26/14 27/27/8
f 28/28/8 29/29/14 30/30/15
f 31/31/14 32/32/16 33/33/15
f 34/34/14 35/35/17 36/36/16
f 37/37/17 38/38/18 39/39/16
f 40/40/17 41/41/19 42/42/18
f 43/43/19 44/44/20 45/45/18
f 46/46/19 47/47/21 48/48/20
f 49/49/21 50/50/22 51/51/20
f 52/52/21 53/53/23 54/54/22
f 55/55/23 56/56/24 57/57/25
f 58/58/23 59/59/26 60/60/27
f 61/61/28 62/62/29 63/63/27
f 64/64/28 65/65/30 66/66/31
f 67/67/30 68/68/32 69/69/33
f 70/70/34 71/71/35 72/72/32
f 79/73/36 80/74/37 81/75/38
f 82/76/39 83/77/17 84/78/14
f 85/79/40 86/80/23 87/81/21
f 88/82/40 89/83/21 90/84/41
f 91/85/41 92/86/21 93/87/19
f 94/88/41 95/89/19 96/90/42
f 97/91/42 98/92/43 99/93/17
f 100/94/42 101/95/17 102/96/44
f 103/97/39 104/98/45 105/99/17
f 128/100/46 129/101/47 130/102/48
f 131/103/35 132/104/49 133/105/32
f 134/106/35 135/107/50 136/108/51
f 137/109/50 138/110/52 139/111/53
f 140/112/50 141/113/48 142/114/54
f 143/115/55 144/116/56 145/117/54
f 146/118/55 147/119/47 148/120/57
f 149/121/47 150/122/3 151/123/57
f 152/124/47 153/125/4 154/126/3
f 155/127/1 156/128/47 157/129/58
f 158/130/59 159/131/58 160/132/10
f 167/133/46 168/134/60 169/135/61
f 170/136/60 171/137/62 172/138/61
f 173/139/48 174/140/50 175/141/62
f 182/142/50 183/143/63 184/144/62
f 185/145/50 186/146/64 187/147/63
f 188/148/65 189/149/35 190/150/30
f 191/151/63 192/152/34 193/153/66
f 194/154/67 195/155/30 196/156/28
f 197/157/67 198/158/28 199/159/68
f 200/160/69 201/161/26 202/162/70
f 203/163/68 204/164/70 205/165/40
f 209/166/10 210/167/12 211/168/6
l 74 75
l 78 77
l 107 106
l 110 111
l 114 115
l 117 118
l 120 121
l 123 124
l 125 126
l 161 162
l 165 166
l 179 178
l 181 180
l 207 208
